<svg xmlns="http://www.w3.org/2000/svg" xmlns:xlink="http://www.w3.org/1999/xlink" viewBox="0 0 249.028 254.004">
  <defs>
    <style>
      .cls-1 {
        fill: url(#linear-gradient);
      }

      .cls-2 {
        fill: url(#linear-gradient-2);
      }

      .cls-3 {
        fill: #fff;
      }

      .cls-4 {
        filter: url(#Union_1);
      }

      .cls-5 {
        filter: url(#Union_2);
      }
    </style>
    <linearGradient id="linear-gradient" x1="-0.135" y1="1.187" x2="0.941" y2="-0.471" gradientUnits="objectBoundingBox">
      <stop offset="0" stop-color="#3b78ea"/>
      <stop offset="1" stop-color="#173da9"/>
    </linearGradient>
    <filter id="Union_2" x="0.837" y="6.004" width="248.192" height="248" filterUnits="userSpaceOnUse">
      <feOffset dx="4" dy="9" input="SourceAlpha"/>
      <feGaussianBlur stdDeviation="10" result="blur"/>
      <feFlood flood-opacity="0.11"/>
      <feComposite operator="in" in2="blur"/>
      <feComposite in="SourceGraphic"/>
    </filter>
    <linearGradient id="linear-gradient-2" x1="-0.378" y1="0.302" x2="0.973" y2="1" xlink:href="#linear-gradient"/>
    <filter id="Union_1" x="0" y="0" width="248" height="248.192" filterUnits="userSpaceOnUse">
      <feOffset dx="3" dy="3" input="SourceAlpha"/>
      <feGaussianBlur stdDeviation="10" result="blur-2"/>
      <feFlood flood-opacity="0.11"/>
      <feComposite operator="in" in2="blur-2"/>
      <feComposite in="SourceGraphic"/>
    </filter>
  </defs>
  <g id="analogCom" transform="translate(-516 -177.064)">
    <g class="cls-5" transform="matrix(1, 0, 0, 1, 516, 177.06)">
      <path id="Union_2-2" data-name="Union 2" class="cls-1" d="M-1819.808,75.064a45,45,0,0,1,45-45h98a45,45,0,0,1,45,45v98q0,1.6-.111,3.182h.082v41.8h-43.655q-.655.019-1.316.019C-1799.661,218.064-1822.414,106.862-1819.808,75.064Z" transform="translate(1846.84 -3.06)"/>
    </g>
    <g class="cls-4" transform="matrix(1, 0, 0, 1, 516, 177.06)">
      <path id="Union_1-2" data-name="Union 1" class="cls-2" d="M-1775,218.064a45,45,0,0,1-45-45v-98a45,45,0,0,1,45-45h143v49h-.04c-2.265,113.559-101.168,139.188-137.856,139.191Q-1772.7,218.256-1775,218.064Z" transform="translate(1847 -3.06)"/>
    </g>
    <g id="_118328" data-name="118328" transform="translate(579 251.064)">
      <g id="Group_3" data-name="Group 3" transform="translate(0 5)">
        <path id="Path_7" data-name="Path 7" class="cls-3" d="M114.294,33.817H101.12c-1.454,0-3.635-.112-3.635.987V50.7c0,1.1-2.18,3.987-3.635,3.987S90.216,51.8,90.216,50.7V10.961c0-3.292-2.538-3.961-6.9-3.961s-6.9.668-6.9,3.961V66.594c0,1.1-2.18,3.987-3.635,3.987s-3.635-2.888-3.635-3.987V16.921c0-3.292-2.538-3.961-6.9-3.961s-6.9.668-6.9,3.961V44.738c0,1.1-3.18,1.987-4.635,1.987s-2.635-.888-2.635-1.987V10.961C48.06,7.668,45.521,7,41.156,7s-6.9.668-6.9,3.961V58.646c0,1.1-2.18,3.987-3.635,3.987s-3.635-2.888-3.635-3.987V26.856c0-3.292-2.538-3.961-6.9-3.961s-6.9.668-6.9,3.961v6.961H2.635C1.18,33.817,0,33.7,0,34.8S1.18,36.79,2.635,36.79H13.808c1.454,0,2.635-.888,2.635-1.987V26.856c0-1.1,1.18-1.987,2.635-1.987s4.635.888,4.635,1.987v31.79c0,3.292,1.538,5.961,5.9,5.961s7.9-2.668,7.9-5.961V10.961c0-1.1,1.18-1.987,2.635-1.987s4.635.888,4.635,1.987V44.738c0,3.292,1.538,4.961,5.9,4.961s7.9-1.668,7.9-4.961V16.921c0-1.1,1.18-1.987,2.635-1.987s4.635.888,4.635,1.987V66.594c0,3.292,1.538,5.961,5.9,5.961s7.9-2.668,7.9-5.961V10.961c0-1.1,1.18-1.987,2.635-1.987s4.635.888,4.635,1.987V50.7c0,3.292,1.538,5.961,5.9,5.961s7.9-2.668,7.9-5.961V36.79h12.539c1.454,0,2.635-.888,2.635-1.987S115.748,33.817,114.294,33.817Z" transform="translate(0 -5)"/>
      </g>
    </g>
  </g>
</svg>
