<svg xmlns="http://www.w3.org/2000/svg" xmlns:xlink="http://www.w3.org/1999/xlink" viewBox="0 0 249.028 254.004">
  <defs>
    <style>
      .cls-1 {
        fill: url(#linear-gradient);
      }

      .cls-2 {
        fill: url(#linear-gradient-2);
      }

      .cls-3 {
        fill: #fff;
      }

      .cls-4 {
        filter: url(#Union_6);
      }

      .cls-5 {
        filter: url(#Union_5);
      }
    </style>
    <linearGradient id="linear-gradient" x1="-0.135" y1="1.187" x2="0.941" y2="-0.471" gradientUnits="objectBoundingBox">
      <stop offset="0" stop-color="#3b78ea"/>
      <stop offset="1" stop-color="#173da9"/>
    </linearGradient>
    <filter id="Union_5" x="0.837" y="6.004" width="248.192" height="248" filterUnits="userSpaceOnUse">
      <feOffset dx="4" dy="9" input="SourceAlpha"/>
      <feGaussianBlur stdDeviation="10" result="blur"/>
      <feFlood flood-opacity="0.11"/>
      <feComposite operator="in" in2="blur"/>
      <feComposite in="SourceGraphic"/>
    </filter>
    <linearGradient id="linear-gradient-2" x1="-0.378" y1="0.302" x2="0.973" y2="1" xlink:href="#linear-gradient"/>
    <filter id="Union_6" x="0" y="0" width="248" height="248.192" filterUnits="userSpaceOnUse">
      <feOffset dx="3" dy="3" input="SourceAlpha"/>
      <feGaussianBlur stdDeviation="10" result="blur-2"/>
      <feFlood flood-opacity="0.11"/>
      <feComposite operator="in" in2="blur-2"/>
      <feComposite in="SourceGraphic"/>
    </filter>
  </defs>
  <g id="compArch" transform="translate(-516 -167.064)">
    <g class="cls-5" transform="matrix(1, 0, 0, 1, 516, 167.06)">
      <path id="Union_5-2" data-name="Union 5" class="cls-1" d="M-1819.808,75.064a45,45,0,0,1,45-45h98a45,45,0,0,1,45,45v98q0,1.6-.111,3.182h.082v41.8h-43.655q-.655.019-1.316.019C-1799.661,218.064-1822.414,106.862-1819.808,75.064Z" transform="translate(1846.84 -3.06)"/>
    </g>
    <g class="cls-4" transform="matrix(1, 0, 0, 1, 516, 167.06)">
      <path id="Union_6-2" data-name="Union 6" class="cls-2" d="M-1775,218.064a45,45,0,0,1-45-45v-98a45,45,0,0,1,45-45h143v49h-.04c-2.265,113.559-101.168,139.188-137.856,139.191Q-1772.7,218.256-1775,218.064Z" transform="translate(1847 -3.06)"/>
    </g>
    <g id="_897219" data-name="897219" transform="translate(595 239.063)">
      <g id="Group_72" data-name="Group 72" transform="translate(15.763 0.001)">
        <g id="Group_71" data-name="Group 71" transform="translate(0 0)">
          <path id="Path_46" data-name="Path 46" class="cls-3" d="M163.1,40.717H143.318v-2.8h5.338a1.229,1.229,0,1,0,0-2.458h-5.338v-2.8h3.706a5.135,5.135,0,0,0,3.655-1.514l8.082-8.082a3.853,3.853,0,1,0-1.738-1.738l-8.082,8.082a2.694,2.694,0,0,1-1.917.794h-3.706V27.5a6.49,6.49,0,0,0-6.482-6.482h-2.711V10.137a3.856,3.856,0,1,0-2.458,0V21.016h-2.8V15.677a1.229,1.229,0,1,0-2.458,0v5.338h-2.8V1.23a1.229,1.229,0,0,0-2.458,0V21.016h-2.8V15.677a1.229,1.229,0,1,0-2.458,0v5.338h-2.8V17.31a5.135,5.135,0,0,0-1.514-3.655L103.51,5.57a3.858,3.858,0,1,0-1.738,1.738l8.085,8.085a2.693,2.693,0,0,1,.794,1.917v3.706H107.94a6.51,6.51,0,0,0-1.62.2,1.229,1.229,0,1,0,.613,2.38,4.047,4.047,0,0,1,1.007-.127h28.9A4.029,4.029,0,0,1,140.86,27.5v28.9a4.048,4.048,0,0,1-.126,1.007,1.229,1.229,0,1,0,2.38.612,6.5,6.5,0,0,0,.2-1.618V53.682H154.2a3.856,3.856,0,1,0,0-2.458H143.317v-2.8h5.338a1.229,1.229,0,1,0,0-2.458h-5.338v-2.8H163.1a1.229,1.229,0,1,0,0-2.458Zm-3.615-22.088a1.4,1.4,0,1,1-.409.988A1.388,1.388,0,0,1,159.488,18.629ZM101.048,4.845a1.4,1.4,0,1,1,0-1.977A1.4,1.4,0,0,1,101.048,4.845Zm31.847,3.036a1.4,1.4,0,1,1,1.4-1.4A1.4,1.4,0,0,1,132.895,7.881ZM157.85,51.055a1.4,1.4,0,1,1-1.4,1.4A1.4,1.4,0,0,1,157.85,51.055Z" transform="translate(-96.206 -0.001)"/>
        </g>
      </g>
      <g id="Group_74" data-name="Group 74" transform="translate(0 24.956)">
        <g id="Group_73" data-name="Group 73">
          <path id="Path_47" data-name="Path 47" class="cls-3" d="M67,204.659a3.86,3.86,0,0,0-4.439-.725l-8.085-8.085a2.693,2.693,0,0,1-.794-1.917v-3.706h2.711a6.506,6.506,0,0,0,1.62-.2,1.229,1.229,0,1,0-.613-2.38,4.045,4.045,0,0,1-1.007.127H27.5a4.029,4.029,0,0,1-4.025-4.025v-28.9a4.042,4.042,0,0,1,.127-1.007,1.229,1.229,0,0,0-2.38-.613,6.5,6.5,0,0,0-.2,1.62v2.711H10.136a3.856,3.856,0,1,0,0,2.458H21.015v2.8H15.676a1.229,1.229,0,0,0,0,2.458h5.338v2.8H1.229a1.229,1.229,0,0,0,0,2.458H21.015v2.8H15.676a1.229,1.229,0,0,0,0,2.458h5.338v2.8H17.308a5.135,5.135,0,0,0-3.655,1.514l-8.082,8.082a3.852,3.852,0,1,0,1.738,1.738l8.082-8.082a2.694,2.694,0,0,1,1.917-.794h3.706v2.711a6.49,6.49,0,0,0,6.482,6.482h2.711V201.1a3.856,3.856,0,1,0,2.458,0V190.226h2.8v5.338a1.229,1.229,0,1,0,2.458,0v-5.338h2.8v19.786a1.229,1.229,0,1,0,2.458,0V190.226h2.8v5.338a1.229,1.229,0,1,0,2.458,0v-5.338h2.8v3.706a5.135,5.135,0,0,0,1.514,3.655l8.085,8.085A3.854,3.854,0,1,0,67,204.659ZM6.482,160.187a1.4,1.4,0,1,1,1.4-1.4A1.4,1.4,0,0,1,6.482,160.187ZM4.844,192.613a1.4,1.4,0,1,1,.409-.988A1.389,1.389,0,0,1,4.844,192.613Zm27.991,12.146a1.4,1.4,0,1,1-1.4-1.4A1.4,1.4,0,0,1,32.835,204.759Zm32.426,3.615a1.4,1.4,0,1,1,0-1.977A1.4,1.4,0,0,1,65.261,208.374Z" transform="translate(0 -152.306)"/>
        </g>
      </g>
      <g id="Group_76" data-name="Group 76" transform="translate(28.895 27.583)">
        <g id="Group_75" data-name="Group 75">
          <path id="Path_48" data-name="Path 48" class="cls-3" d="M202.456,179.42a5.935,5.935,0,0,0-4.554-5.578,4.194,4.194,0,0,0,.121-.989,4.737,4.737,0,0,0-4.923-4.512,5.112,5.112,0,0,0-3.694,1.534,5.112,5.112,0,0,0-3.694-1.534,4.736,4.736,0,0,0-4.923,4.512,4.2,4.2,0,0,0,.121.989,5.935,5.935,0,0,0-4.554,5.578,5.4,5.4,0,0,0,1.294,3.5,6.076,6.076,0,0,0-1.294,3.727,6.329,6.329,0,0,0,2.955,5.25v0a5.438,5.438,0,0,0,5.662,5.169,5.863,5.863,0,0,0,4.433-1.959,5.863,5.863,0,0,0,4.433,1.959,5.476,5.476,0,0,0,5.65-4.85,5.744,5.744,0,0,0,2.967-4.916,5.539,5.539,0,0,0-1.709-3.94A5.54,5.54,0,0,0,202.456,179.42Zm-4.349,5.027A3.278,3.278,0,0,1,200,187.3a3.143,3.143,0,0,1-1.083,2.31,5.517,5.517,0,0,0-3.231-2.6,1.229,1.229,0,0,0-.737,2.345,2.788,2.788,0,0,1,2.095,2.544,3.249,3.249,0,0,1-6.408,0v-7.881a2.992,2.992,0,0,1,3.2-2.711,1.229,1.229,0,0,0,0-2.458,6.008,6.008,0,0,0-3.2.91v-1.57a1.229,1.229,0,1,0-2.458,0v6.822a5.854,5.854,0,0,0-1.358-.629,1.229,1.229,0,0,0-.737,2.345,2.788,2.788,0,0,1,2.094,2.544V191.9a3.249,3.249,0,0,1-6.408,0,2.477,2.477,0,0,1,.765-1.754A1.229,1.229,0,0,0,180.8,188.4a5.228,5.228,0,0,0-.759.953,3.748,3.748,0,0,1-1.229-2.709,4.185,4.185,0,0,1,3.475-3.89,1.229,1.229,0,0,0-.55-2.4,7.486,7.486,0,0,0-2.254.918,2.965,2.965,0,0,1-.671-1.857,3.689,3.689,0,0,1,3.913-3.367l.033,0a1.228,1.228,0,0,0,1.043-1.876c-.009-.015-.018-.03-.028-.045l-.016-.022c-.019-.027-.039-.053-.06-.078l0,0a1.824,1.824,0,0,1-.45-1.179,2.506,2.506,0,0,1,4.93,0,1.229,1.229,0,1,0,2.458,0,2.506,2.506,0,0,1,4.93,0,1.728,1.728,0,0,1-.184.773,6.824,6.824,0,0,0-2.017.506,1.229,1.229,0,0,0,.955,2.265,4.436,4.436,0,0,1,1.7-.344h.035l.033,0A3.688,3.688,0,0,1,200,179.419a3.279,3.279,0,0,1-1.891,2.854,1.229,1.229,0,0,0,0,2.174Z" transform="translate(-176.357 -168.34)"/>
        </g>
      </g>
    </g>
  </g>
</svg>
