<svg xmlns="http://www.w3.org/2000/svg" xmlns:xlink="http://www.w3.org/1999/xlink" viewBox="0 0 249.028 254.004">
  <defs>
    <style>
      .cls-1 {
        fill: url(#linear-gradient);
      }

      .cls-2 {
        fill: url(#linear-gradient-2);
      }

      .cls-3 {
        fill: #fff;
      }

      .cls-4 {
        filter: url(#Union_8);
      }

      .cls-5 {
        filter: url(#Union_7);
      }
    </style>
    <linearGradient id="linear-gradient" x1="-0.135" y1="1.187" x2="0.941" y2="-0.471" gradientUnits="objectBoundingBox">
      <stop offset="0" stop-color="#3b78ea"/>
      <stop offset="1" stop-color="#173da9"/>
    </linearGradient>
    <filter id="Union_7" x="0.837" y="6.004" width="248.192" height="248" filterUnits="userSpaceOnUse">
      <feOffset dx="4" dy="9" input="SourceAlpha"/>
      <feGaussianBlur stdDeviation="10" result="blur"/>
      <feFlood flood-opacity="0.11"/>
      <feComposite operator="in" in2="blur"/>
      <feComposite in="SourceGraphic"/>
    </filter>
    <linearGradient id="linear-gradient-2" x1="-0.378" y1="0.302" x2="0.973" y2="1" xlink:href="#linear-gradient"/>
    <filter id="Union_8" x="0" y="0" width="248" height="248.192" filterUnits="userSpaceOnUse">
      <feOffset dx="3" dy="3" input="SourceAlpha"/>
      <feGaussianBlur stdDeviation="10" result="blur-2"/>
      <feFlood flood-opacity="0.11"/>
      <feComposite operator="in" in2="blur-2"/>
      <feComposite in="SourceGraphic"/>
    </filter>
  </defs>
  <g id="dsd" transform="translate(-516 -167.064)">
    <g class="cls-5" transform="matrix(1, 0, 0, 1, 516, 167.06)">
      <path id="Union_7-2" data-name="Union 7" class="cls-1" d="M-1819.808,75.064a45,45,0,0,1,45-45h98a45,45,0,0,1,45,45v98q0,1.6-.111,3.182h.082v41.8h-43.655q-.655.019-1.316.019C-1799.661,218.064-1822.414,106.862-1819.808,75.064Z" transform="translate(1846.84 -3.06)"/>
    </g>
    <g class="cls-4" transform="matrix(1, 0, 0, 1, 516, 167.06)">
      <path id="Union_8-2" data-name="Union 8" class="cls-2" d="M-1775,218.064a45,45,0,0,1-45-45v-98a45,45,0,0,1,45-45h143v49h-.04c-2.265,113.559-101.168,139.188-137.856,139.191Q-1772.7,218.256-1775,218.064Z" transform="translate(1847 -3.06)"/>
    </g>
    <path id="_149181" data-name="149181" class="cls-3" d="M70.644,0c-4.771,0-8.65,3.607-8.65,8.043a7.558,7.558,0,0,0,1.047,3.834L48.87,25.052a12.145,12.145,0,0,0-14.122,0L23.692,14.771a5.017,5.017,0,0,0,.817-2.706A5.581,5.581,0,0,0,18.742,6.7a5.581,5.581,0,0,0-5.767,5.362,5.581,5.581,0,0,0,5.767,5.362,6.016,6.016,0,0,0,2.911-.76L32.71,26.946a10.072,10.072,0,0,0,0,13.13L14.452,57.053a8.979,8.979,0,0,0-5.8-2.094C3.88,54.959,0,58.566,0,63s3.88,8.043,8.65,8.043S17.3,67.438,17.3,63a7.558,7.558,0,0,0-1.047-3.834l18.5-17.2a11.941,11.941,0,0,0,5.62,2.17V57.761a8.246,8.246,0,0,0-7.209,7.922c0,4.436,3.88,8.043,8.65,8.043s8.65-3.607,8.65-8.043a8.248,8.248,0,0,0-7.209-7.922V44.142a11.941,11.941,0,0,0,5.62-2.17L59.93,52.251a5.014,5.014,0,0,0-.819,2.708A5.782,5.782,0,1,0,64.878,49.6a6.016,6.016,0,0,0-2.911.76L50.91,40.077a10.072,10.072,0,0,0,0-13.13L64.844,13.992a8.972,8.972,0,0,0,5.8,2.094c4.771,0,8.65-3.607,8.65-8.043S75.415,0,70.644,0ZM15.859,12.064a2.791,2.791,0,0,1,2.883-2.681,2.791,2.791,0,0,1,2.883,2.681,2.791,2.791,0,0,1-2.883,2.681A2.791,2.791,0,0,1,15.859,12.064ZM8.65,68.364a5.376,5.376,0,1,1,0-10.724,5.376,5.376,0,1,1,0,10.724Zm38.927-2.681a5.782,5.782,0,1,1-5.767-5.362A5.581,5.581,0,0,1,47.577,65.683ZM41.81,41.554c-4.771,0-8.65-3.607-8.65-8.043s3.88-8.043,8.65-8.043,8.65,3.607,8.65,8.043S46.581,41.554,41.81,41.554Zm25.951,13.4a2.891,2.891,0,1,1-2.883-2.681A2.791,2.791,0,0,1,67.761,54.959ZM70.644,13.4a5.581,5.581,0,0,1-5.767-5.362,5.782,5.782,0,0,1,11.534,0A5.581,5.581,0,0,1,70.644,13.4Z" transform="translate(597 244.064)"/>
  </g>
</svg>
