<svg xmlns="http://www.w3.org/2000/svg" xmlns:xlink="http://www.w3.org/1999/xlink" viewBox="0 0 249.028 254.004">
  <defs>
    <style>
      .cls-1 {
        fill: url(#linear-gradient);
      }

      .cls-2 {
        fill: url(#linear-gradient-2);
      }

      .cls-3 {
        fill: #fff;
      }

      .cls-4 {
        filter: url(#Union_4);
      }

      .cls-5 {
        filter: url(#Union_3);
      }
    </style>
    <linearGradient id="linear-gradient" x1="-0.135" y1="1.187" x2="0.941" y2="-0.471" gradientUnits="objectBoundingBox">
      <stop offset="0" stop-color="#3b78ea"/>
      <stop offset="1" stop-color="#173da9"/>
    </linearGradient>
    <filter id="Union_3" x="0.837" y="6.004" width="248.192" height="248" filterUnits="userSpaceOnUse">
      <feOffset dx="4" dy="9" input="SourceAlpha"/>
      <feGaussianBlur stdDeviation="10" result="blur"/>
      <feFlood flood-opacity="0.11"/>
      <feComposite operator="in" in2="blur"/>
      <feComposite in="SourceGraphic"/>
    </filter>
    <linearGradient id="linear-gradient-2" x1="-0.378" y1="0.302" x2="0.973" y2="1" xlink:href="#linear-gradient"/>
    <filter id="Union_4" x="0" y="0" width="248" height="248.192" filterUnits="userSpaceOnUse">
      <feOffset dx="3" dy="3" input="SourceAlpha"/>
      <feGaussianBlur stdDeviation="10" result="blur-2"/>
      <feFlood flood-opacity="0.11"/>
      <feComposite operator="in" in2="blur-2"/>
      <feComposite in="SourceGraphic"/>
    </filter>
  </defs>
  <g id="dsp" transform="translate(-516 -167.064)">
    <g class="cls-5" transform="matrix(1, 0, 0, 1, 516, 167.06)">
      <path id="Union_3-2" data-name="Union 3" class="cls-1" d="M-1819.808,75.064a45,45,0,0,1,45-45h98a45,45,0,0,1,45,45v98q0,1.6-.111,3.182h.082v41.8h-43.655q-.655.019-1.316.019C-1799.661,218.064-1822.414,106.862-1819.808,75.064Z" transform="translate(1846.84 -3.06)"/>
    </g>
    <g class="cls-4" transform="matrix(1, 0, 0, 1, 516, 167.06)">
      <path id="Union_4-2" data-name="Union 4" class="cls-2" d="M-1775,218.064a45,45,0,0,1-45-45v-98a45,45,0,0,1,45-45h143v49h-.04c-2.265,113.559-101.168,139.188-137.856,139.191Q-1772.7,218.256-1775,218.064Z" transform="translate(1847 -3.06)"/>
    </g>
    <g id="_106109" data-name="106109" transform="translate(580 198.993)">
      <path id="Path_8" data-name="Path 8" class="cls-3" d="M1.81,138.428A2.015,2.015,0,0,0,0,140.6v7.176a2.015,2.015,0,0,0,1.81,2.17,2.015,2.015,0,0,0,1.81-2.17V140.6A2.015,2.015,0,0,0,1.81,138.428Z" transform="translate(2 -62.34)"/>
      <path id="Path_9" data-name="Path 9" class="cls-3" d="M29.083,138.428a2.015,2.015,0,0,0-1.81,2.17v7.176a2.015,2.015,0,0,0,1.81,2.17,2.015,2.015,0,0,0,1.81-2.17V140.6A2.015,2.015,0,0,0,29.083,138.428Z" transform="translate(-15.204 -62.34)"/>
      <path id="Path_10" data-name="Path 10" class="cls-3" d="M56.356,128.635a2.015,2.015,0,0,0-1.81,2.17v13.249a1.84,1.84,0,1,0,3.62,0V130.805A2.015,2.015,0,0,0,56.356,128.635Z" transform="translate(-32.407 -55.584)"/>
      <path id="Path_11" data-name="Path 11" class="cls-3" d="M83.628,117.063a2.015,2.015,0,0,0-1.81,2.17v20.426a1.84,1.84,0,1,0,3.62,0V119.233A2.015,2.015,0,0,0,83.628,117.063Z" transform="translate(-49.61 -47.6)"/>
      <path id="Path_12" data-name="Path 12" class="cls-3" d="M110.9,96.588a2.015,2.015,0,0,0-1.81,2.17v33.122a1.84,1.84,0,1,0,3.62,0V98.758A2.015,2.015,0,0,0,110.9,96.588Z" transform="translate(-66.815 -33.474)"/>
      <path id="Path_13" data-name="Path 13" class="cls-3" d="M138.176,48.071a2.016,2.016,0,0,0-1.812,2.17v63.209a1.841,1.841,0,1,0,3.623,0V50.241A2.016,2.016,0,0,0,138.176,48.071Z" transform="translate(-84.472)"/>
      <path id="Path_14" data-name="Path 14" class="cls-3" d="M165.447,65.43a2.015,2.015,0,0,0-1.81,2.17v52.445a1.84,1.84,0,1,0,3.62,0V67.6A2.015,2.015,0,0,0,165.447,65.43Z" transform="translate(-102.137 -11.977)"/>
      <path id="Path_15" data-name="Path 15" class="cls-3" d="M192.719,100.148a2.015,2.015,0,0,0-1.81,2.17v30.914a1.84,1.84,0,1,0,3.62,0V102.318A2.015,2.015,0,0,0,192.719,100.148Z" transform="translate(-119.909 -35.93)"/>
      <path id="Path_16" data-name="Path 16" class="cls-3" d="M219.993,121.067a2.015,2.015,0,0,0-1.81,2.17v17.942a1.84,1.84,0,1,0,3.62,0V123.237A2.015,2.015,0,0,0,219.993,121.067Z" transform="translate(-137.629 -50.362)"/>
      <path id="Path_17" data-name="Path 17" class="cls-3" d="M247.266,129.971a2.015,2.015,0,0,0-1.81,2.17v12.421a1.84,1.84,0,1,0,3.62,0V132.141A2.015,2.015,0,0,0,247.266,129.971Z" transform="translate(-155.833 -56.506)"/>
      <path id="Path_18" data-name="Path 18" class="cls-3" d="M274.538,138.428a2.015,2.015,0,0,0-1.81,2.17v7.176a1.84,1.84,0,1,0,3.62,0V140.6A2.015,2.015,0,0,0,274.538,138.428Z" transform="translate(-174.036 -62.34)"/>
      <path id="Path_19" data-name="Path 19" class="cls-3" d="M301.81,138.428A2.015,2.015,0,0,0,300,140.6v7.176a1.84,1.84,0,1,0,3.62,0V140.6A2.015,2.015,0,0,0,301.81,138.428Z" transform="translate(-192.239 -62.34)"/>
    </g>
  </g>
</svg>
